<?xml version="1.0" encoding="utf-8"?>
<!-- Generator: Adobe Illustrator 26.0.3, SVG Export Plug-In . SVG Version: 6.00 Build 0)  -->
<svg version="1.1" id="Layer_1" xmlns="http://www.w3.org/2000/svg" xmlns:xlink="http://www.w3.org/1999/xlink" x="0px" y="0px"
	 viewBox="0 0 200 200" style="enable-background:new 0 0 200 200;" xml:space="preserve">
<style type="text/css">
	.st0{fill:#F04E56;}
	.st1{fill:#343434;}
	.st2{fill:#FFFFFF;}
	.st3{opacity:0.23;}
	.st4{fill:#898989;}
</style>
<g>
	<g>
		
			<ellipse transform="matrix(0.7071 -0.7071 0.7071 0.7071 -41.4214 100.0001)" class="st0" cx="100" cy="100" rx="91.48" ry="91.48"/>
		<path class="st1" d="M100,11.52c48.87,0,88.48,39.62,88.48,88.48s-39.62,88.48-88.48,88.48S11.52,148.87,11.52,100
			S51.13,11.52,100,11.52 M100,5.52C47.9,5.52,5.52,47.9,5.52,100S47.9,194.48,100,194.48s94.48-42.38,94.48-94.48
			S152.1,5.52,100,5.52L100,5.52z"/>
	</g>
	<g>
		<path class="st2" d="M100.3,191.13c-22.73,0-43.77-7.64-59.23-21.52c-0.68-0.61-1.04-1.49-0.99-2.4c0.05-0.91,0.52-1.75,1.26-2.28
			c1.39-0.99,2.75-1.97,4.11-2.95c2.97-2.15,6.05-4.38,9.18-6.42c2.62-1.7,5.33-3.32,7.94-4.88c2.93-1.75,5.97-3.56,8.82-5.47
			c5.35-3.57,8.42-8.49,8.65-13.85c0.23-5.55-2.56-10.94-7.87-15.17c-6.39-5.09-8.02-10.19-5.83-18.21c0.21-0.78,0.12-1.9,0.02-3.09
			c-0.06-0.74-0.12-1.51-0.13-2.32c-0.01-2.06-0.12-4.22-0.23-6.3c-0.26-4.93-0.52-10.02,0.49-14.97
			c2.93-14.28,13.26-22.64,29.88-24.17c0.41-0.04,0.84-0.05,1.26-0.05l1.1,0.01c0.37,0,0.82-0.01,1.09-0.09
			c2.67-0.82,5.38-1.23,8.05-1.23c14.86,0,26.18,12.33,27.55,29.99c0.25,3.2,0,6.38-0.24,9.45c-0.16,2.03-0.31,3.94-0.33,5.85
			c-0.02,2.36,0.28,4.76,0.6,7.29l0.16,1.26c0.67,5.49,0.49,11.7-5.81,16.13c-5.45,3.83-8.43,9.58-8.85,17.1
			c-0.22,4.03,1.73,7.35,6.14,10.43c3.23,2.26,6.69,4.37,10.04,6.42c2.32,1.42,4.71,2.88,7.04,4.4c3.57,2.32,7.05,4.72,10.73,7.25
			c1.64,1.13,3.32,2.29,5.06,3.47c0.77,0.52,1.25,1.37,1.3,2.3c0.06,0.93-0.32,1.83-1.02,2.44
			C144.35,183.46,123.06,191.13,100.3,191.13z"/>
		<path class="st1" d="M107.87,48.76c12.55,0,23.25,10.31,24.56,27.22c0.38,4.97-0.53,10.03-0.58,15.04
			c-0.03,2.98,0.41,5.97,0.77,8.94c0.63,5.19,0.35,9.87-4.56,13.31c-6.63,4.65-9.68,11.45-10.12,19.38
			c-0.33,5.84,3.01,9.98,7.42,13.06c5.54,3.88,11.49,7.18,17.16,10.87c5.14,3.34,10.15,6.88,15.73,10.69
			c-15.87,13.91-36.98,20.85-57.96,20.85c-20.97,0-41.82-6.93-57.22-20.76c4.5-3.19,8.74-6.41,13.19-9.3
			c5.52-3.59,11.32-6.72,16.8-10.37c12.97-8.65,13.35-24.01,0.98-33.86c-5.55-4.42-6.65-8.33-4.81-15.07c0.53-1.93,0.01-4.13,0-6.21
			c-0.02-6.9-1.15-14.04,0.21-20.66c2.76-13.44,12.25-20.41,27.22-21.79c0.32-0.03,0.65-0.04,0.98-0.04c0.36,0,0.73,0.01,1.1,0.01
			c0.68,0,1.35-0.03,1.97-0.22C103.13,49.12,105.53,48.76,107.87,48.76 M107.87,42.76L107.87,42.76c-2.92,0-5.87,0.44-8.77,1.32
			c-0.06,0-0.18,0.01-0.37,0.01c-0.16,0-0.31,0-0.47,0c-0.21,0-0.42-0.01-0.63-0.01c-0.37,0-0.92,0.01-1.53,0.06
			c-22.83,2.1-30.3,15.6-32.54,26.56c-1.09,5.33-0.82,10.62-0.55,15.73c0.11,2.14,0.22,4.16,0.22,6.15c0,0.92,0.07,1.79,0.14,2.55
			c0.06,0.69,0.14,1.73,0.07,2.07c-2.5,9.13-0.45,15.52,6.86,21.33c4.54,3.62,6.94,8.13,6.74,12.7c-0.18,4.38-2.78,8.46-7.32,11.48
			c-2.8,1.86-5.66,3.58-8.7,5.39c-2.64,1.58-5.37,3.21-8.04,4.94c-3.2,2.08-6.31,4.33-9.31,6.51c-1.34,0.97-2.7,1.95-4.07,2.93
			c-1.49,1.06-2.41,2.73-2.52,4.55c-0.1,1.82,0.62,3.59,1.98,4.81c16.01,14.38,37.76,22.29,61.23,22.29
			c23.49,0,45.48-7.93,61.92-22.34c1.4-1.22,2.15-3.02,2.03-4.88c-0.11-1.85-1.08-3.55-2.61-4.59c-1.73-1.18-3.41-2.34-5.06-3.47
			c-3.69-2.54-7.18-4.94-10.78-7.29c-2.37-1.54-4.78-3.01-7.11-4.44c-3.46-2.12-6.73-4.11-9.88-6.32c-4.52-3.16-4.97-5.83-4.86-7.81
			c0.37-6.64,2.85-11.49,7.58-14.81c8.63-6.06,7.54-15.09,7.07-18.95l-0.16-1.28c-0.3-2.43-0.59-4.73-0.57-6.89
			c0.02-1.81,0.16-3.67,0.32-5.65c0.25-3.18,0.51-6.47,0.24-9.91C136.92,56.23,124.37,42.76,107.87,42.76L107.87,42.76z"/>
	</g>
	<g class="st3">
		<path class="st4" d="M100,167.53c-47,0-85.41-32.3-88.29-73.1c-0.11,1.84-0.19,3.7-0.19,5.57c0,48.87,39.62,88.48,88.48,88.48
			s88.48-39.62,88.48-88.48c0-1.87-0.08-3.73-0.19-5.57C185.41,135.22,147,167.53,100,167.53z"/>
	</g>
</g>
</svg>
